<?xml version="1.0" encoding="UTF-8"?><svg xmlns="http://www.w3.org/2000/svg" xmlns:xlink="http://www.w3.org/1999/xlink" fill-opacity="1" color-rendering="auto" color-interpolation="auto" text-rendering="auto" stroke="black" stroke-linecap="square" width="1220" stroke-miterlimit="10" shape-rendering="auto" stroke-opacity="1" fill="black" stroke-dasharray="none" font-weight="normal" stroke-width="1" height="1244" font-family="'Dialog'" font-style="normal" stroke-linejoin="miter" font-size="12px" stroke-dashoffset="0" image-rendering="auto">
  <!--Generated by ySVG 2.5-->
  <defs id="genericDefs"/>
  <g>
    <g fill="white" text-rendering="geometricPrecision" shape-rendering="geometricPrecision" transform="translate(-433,146)" stroke="white">
      <rect x="433" width="1220" height="1244" y="-146" clip-path="url(#clipPath2)" stroke="none"/>
    </g>
    <g fill="rgb(153,204,255)" text-rendering="geometricPrecision" shape-rendering="geometricPrecision" transform="matrix(1,0,0,1,-433,146)" stroke="rgb(153,204,255)">
      <rect x="806.5229" y="83" clip-path="url(#clipPath2)" width="619.5" rx="4" ry="4" height="194.3765" stroke="none"/>
      <rect x="806.5229" y="83" clip-path="url(#clipPath2)" fill="rgb(235,235,235)" width="619.5" height="22.3765" stroke="none"/>
    </g>
    <g font-size="15px" stroke-linecap="butt" transform="matrix(1,0,0,1,-433,146)" text-rendering="geometricPrecision" font-family="sans-serif" shape-rendering="geometricPrecision" stroke-miterlimit="1.45">
      <text x="1379.8431" xml:space="preserve" y="100.0806" clip-path="url(#clipPath2)" stroke="none">Parser</text>
      <rect x="806.5229" y="83" clip-path="url(#clipPath2)" fill="none" width="619.5" stroke-dasharray="6,2" rx="4" ry="4" height="194.3765"/>
    </g>
    <g fill="rgb(204,255,204)" text-rendering="geometricPrecision" shape-rendering="geometricPrecision" transform="matrix(1,0,0,1,-433,146)" stroke="rgb(204,255,204)">
      <rect x="1195.0229" y="120.3765" clip-path="url(#clipPath2)" width="215" rx="4" ry="4" height="142" stroke="none"/>
    </g>
    <g text-rendering="geometricPrecision" stroke-miterlimit="1.45" shape-rendering="geometricPrecision" transform="matrix(1,0,0,1,-433,146)" stroke-linecap="butt">
      <rect x="1195.0229" y="120.3765" clip-path="url(#clipPath2)" fill="none" width="215" rx="4" ry="4" height="142"/>
      <text x="1221.1019" font-size="20px" y="197.8657" clip-path="url(#clipPath2)" font-family="'Eras Demi ITC'" stroke="none" xml:space="preserve">Paragraph Parser</text>
    </g>
    <g fill="silver" text-rendering="geometricPrecision" shape-rendering="geometricPrecision" transform="matrix(1,0,0,1,-433,146)" stroke="silver">
      <rect x="822.5229" y="120.3765" clip-path="url(#clipPath2)" width="215" rx="4" ry="4" height="142" stroke="none"/>
    </g>
    <g text-rendering="geometricPrecision" stroke-miterlimit="1.45" shape-rendering="geometricPrecision" transform="matrix(1,0,0,1,-433,146)" stroke-linecap="butt">
      <rect x="822.5229" y="120.3765" clip-path="url(#clipPath2)" fill="none" width="215" rx="4" ry="4" height="142"/>
      <text x="836.5316" font-size="20px" y="197.8657" clip-path="url(#clipPath2)" font-family="'Eras Demi ITC'" stroke="none" xml:space="preserve">Raw Content Parser</text>
    </g>
    <g fill="rgb(153,204,255)" text-rendering="geometricPrecision" shape-rendering="geometricPrecision" transform="matrix(1,0,0,1,-433,146)" stroke="rgb(153,204,255)">
      <rect x="595.2729" y="348.7515" clip-path="url(#clipPath2)" width="1042" rx="4" ry="4" height="194.3765" stroke="none"/>
      <rect x="595.2729" y="348.7515" clip-path="url(#clipPath2)" fill="rgb(235,235,235)" width="1042" height="22.3765" stroke="none"/>
    </g>
    <g font-size="15px" stroke-linecap="butt" transform="matrix(1,0,0,1,-433,146)" text-rendering="geometricPrecision" font-family="sans-serif" shape-rendering="geometricPrecision" stroke-miterlimit="1.45">
      <text x="1581.9012" xml:space="preserve" y="365.832" clip-path="url(#clipPath2)" stroke="none">Pipeline</text>
      <rect x="595.2729" y="348.7515" clip-path="url(#clipPath2)" fill="none" width="1042" stroke-dasharray="6,2" rx="4" ry="4" height="194.3765"/>
    </g>
    <g fill="rgb(204,255,204)" text-rendering="geometricPrecision" shape-rendering="geometricPrecision" transform="matrix(1,0,0,1,-433,146)" stroke="rgb(204,255,204)">
      <rect x="1141.2729" y="386.1279" clip-path="url(#clipPath2)" width="215" rx="4" ry="4" height="142" stroke="none"/>
    </g>
    <g text-rendering="geometricPrecision" stroke-miterlimit="1.45" shape-rendering="geometricPrecision" transform="matrix(1,0,0,1,-433,146)" stroke-linecap="butt">
      <rect x="1141.2729" y="386.1279" clip-path="url(#clipPath2)" fill="none" width="215" rx="4" ry="4" height="142"/>
      <text x="1183.9974" font-size="18px" y="462.9683" clip-path="url(#clipPath2)" font-family="'Eras Demi ITC'" stroke="none" xml:space="preserve">Paragraph2Csv</text>
    </g>
    <g fill="silver" text-rendering="geometricPrecision" shape-rendering="geometricPrecision" transform="matrix(1,0,0,1,-433,146)" stroke="silver">
      <rect x="1406.2729" y="386.1279" clip-path="url(#clipPath2)" width="215" rx="4" ry="4" height="142" stroke="none"/>
    </g>
    <g text-rendering="geometricPrecision" stroke-miterlimit="1.45" shape-rendering="geometricPrecision" transform="matrix(1,0,0,1,-433,146)" stroke-linecap="butt">
      <rect x="1406.2729" y="386.1279" clip-path="url(#clipPath2)" fill="none" width="215" rx="4" ry="4" height="142"/>
      <text x="1439.1195" font-size="20px" y="463.6172" clip-path="url(#clipPath2)" font-family="'Eras Demi ITC'" stroke="none" xml:space="preserve">Paragraph2SQL</text>
    </g>
    <g fill="silver" text-rendering="geometricPrecision" shape-rendering="geometricPrecision" transform="matrix(1,0,0,1,-433,146)" stroke="silver">
      <rect x="611.2729" y="386.1279" clip-path="url(#clipPath2)" width="215" rx="4" ry="4" height="142" stroke="none"/>
    </g>
    <g text-rendering="geometricPrecision" stroke-miterlimit="1.45" shape-rendering="geometricPrecision" transform="matrix(1,0,0,1,-433,146)" stroke-linecap="butt">
      <rect x="611.2729" y="386.1279" clip-path="url(#clipPath2)" fill="none" width="215" rx="4" ry="4" height="142"/>
      <text x="664.1781" font-size="20px" y="463.6172" clip-path="url(#clipPath2)" font-family="'Eras Demi ITC'" stroke="none" xml:space="preserve">Raw2Cloud</text>
    </g>
    <g fill="silver" text-rendering="geometricPrecision" shape-rendering="geometricPrecision" transform="matrix(1,0,0,1,-433,146)" stroke="silver">
      <rect x="876.2729" y="386.1279" clip-path="url(#clipPath2)" width="215" rx="4" ry="4" height="142" stroke="none"/>
    </g>
    <g text-rendering="geometricPrecision" stroke-miterlimit="1.45" shape-rendering="geometricPrecision" transform="matrix(1,0,0,1,-433,146)" stroke-linecap="butt">
      <rect x="876.2729" y="386.1279" clip-path="url(#clipPath2)" fill="none" width="215" rx="4" ry="4" height="142"/>
      <text x="935.975" font-size="20px" y="463.6172" clip-path="url(#clipPath2)" font-family="'Eras Demi ITC'" stroke="none" xml:space="preserve">Raw2Files</text>
      <path fill="none" d="M1248.7728 262.3765 L1248.7728 378.0977" clip-path="url(#clipPath2)"/>
      <path d="M1248.7728 386.0977 L1253.7728 374.0977 L1248.7728 377.0977 L1243.7728 374.0977 Z" clip-path="url(#clipPath2)" stroke="none"/>
      <path fill="none" d="M1356.2728 262.3765 L1356.2728 292.8765 L1513.7728 333.2515 L1513.7728 378.1021" clip-path="url(#clipPath2)"/>
      <path d="M1513.7728 386.1021 L1518.7728 374.1021 L1513.7728 377.1021 L1508.7728 374.1021 Z" clip-path="url(#clipPath2)" stroke="none"/>
      <path fill="none" d="M876.2728 262.3765 L876.2728 292.8765 L718.7728 333.2515 L718.7728 378.1021" clip-path="url(#clipPath2)"/>
      <path d="M718.7728 386.1021 L723.7728 374.1021 L718.7728 377.1021 L713.7728 374.1021 Z" clip-path="url(#clipPath2)" stroke="none"/>
      <path fill="none" d="M983.7728 262.3765 L983.7728 378.0977" clip-path="url(#clipPath2)"/>
      <path d="M983.7728 386.0977 L988.7728 374.0977 L983.7728 377.0977 L978.7728 374.0977 Z" clip-path="url(#clipPath2)" stroke="none"/>
    </g>
    <g fill="rgb(153,204,255)" text-rendering="geometricPrecision" shape-rendering="geometricPrecision" transform="matrix(1,0,0,1,-433,146)" stroke="rgb(153,204,255)">
      <rect x="595.2729" y="599.5029" clip-path="url(#clipPath2)" width="1042" rx="4" ry="4" height="194.3765" stroke="none"/>
      <rect x="595.2729" y="599.5029" clip-path="url(#clipPath2)" fill="rgb(235,235,235)" width="1042" height="22.3765" stroke="none"/>
    </g>
    <g font-size="15px" stroke-linecap="butt" transform="matrix(1,0,0,1,-433,146)" text-rendering="geometricPrecision" font-family="sans-serif" shape-rendering="geometricPrecision" stroke-miterlimit="1.45">
      <text x="1576.9061" xml:space="preserve" y="616.5835" clip-path="url(#clipPath2)" stroke="none">Interface</text>
      <rect x="595.2729" y="599.5029" clip-path="url(#clipPath2)" fill="none" width="1042" stroke-dasharray="6,2" rx="4" ry="4" height="194.3765"/>
    </g>
    <g fill="rgb(204,255,204)" text-rendering="geometricPrecision" shape-rendering="geometricPrecision" transform="matrix(1,0,0,1,-433,146)" stroke="rgb(204,255,204)">
      <rect x="1008.7729" y="636.8794" clip-path="url(#clipPath2)" width="215" rx="4" ry="4" height="142" stroke="none"/>
    </g>
    <g text-rendering="geometricPrecision" stroke-miterlimit="1.45" shape-rendering="geometricPrecision" transform="matrix(1,0,0,1,-433,146)" stroke-linecap="butt">
      <rect x="1008.7729" y="636.8794" clip-path="url(#clipPath2)" fill="none" width="215" rx="4" ry="4" height="142"/>
      <text x="1067.2152" font-size="20px" y="714.3687" clip-path="url(#clipPath2)" font-family="'Eras Demi ITC'" stroke="none" xml:space="preserve">Filesystem</text>
    </g>
    <g text-rendering="geometricPrecision" shape-rendering="geometricPrecision" transform="matrix(1.8917,0,0,1.9912,1043.6479,806.4761)">
      <g clip-path="url(#clipPath3)">
        <svg xml:space="preserve" opacity="1" writing-mode="lr-tb" stop-color="rgb(0, 0, 0)" shape-rendering="auto" glyph-orientation-horizontal="0deg" color-profile="auto" lighting-color="rgb(255, 255, 255)" color="rgb(0, 0, 0)" font-weight="400" alignment-baseline="auto" font-style="normal" version="1.1" color-interpolation-filters="linearrgb" text-anchor="start" stroke-linecap="butt" color-interpolation="srgb" font-variant="normal" word-spacing="normal" fill-opacity="1" text-rendering="auto" clip-path="none" text-decoration="none" letter-spacing="normal" viewBox="0 0 40 48" glyph-orientation-vertical="auto" display="inline" font-size-adjust="none" overflow="hidden" fill="rgb(0, 0, 0)" font-stretch="normal" stroke-dasharray="none" stroke-miterlimit="4" stop-opacity="1" color-rendering="auto" font-size="12" pointer-events="visiblepainted" mask="none" direction="ltr" baseline-shift="baseline" enable-background="new 0 0 40 48" fill-rule="nonzero" image-rendering="auto" stroke-dashoffset="0" width="40px" marker-end="none" clip="auto" cursor="auto" stroke="none" filter="none" visibility="visible" kerning="auto" stroke-width="1" font-family="&quot;Arial&quot;,&quot;Helvetica&quot;,sans-serif" flood-opacity="1" clip-rule="nonzero" src="none" height="48px" unicode-bidi="normal" stroke-linejoin="miter" stroke-opacity="1" flood-color="rgb(0, 0, 0)" dominant-baseline="auto" marker-start="none" x="0px" marker-mid="none" y="0px">
<defs>
<linearGradient x1="618.5228" gradientUnits="userSpaceOnUse" x2="819.0228" y1="656.1011" y2="759.6577" id="linearGradient1" spreadMethod="reflect"><stop stop-opacity="1" stop-color="rgb(221,221,221)" offset="0%"/><stop stop-opacity="1" stop-color="rgb(187,187,187)" offset="100%"/></linearGradient><linearGradient x1="728.5081" gradientUnits="userSpaceOnUse" x2="943.5081" y1="-130.375" y2="11.625" id="linearGradient2" spreadMethod="reflect"><stop stop-opacity="1" stop-color="rgb(232,238,247)" offset="0%"/><stop stop-opacity="1" stop-color="rgb(183,201,227)" offset="100%"/></linearGradient><clipPath clipPathUnits="userSpaceOnUse" id="clipPath1"><path d="M0 0 L1220 0 L1220 1244 L0 1244 L0 0 Z"/></clipPath><clipPath clipPathUnits="userSpaceOnUse" id="clipPath2"><path d="M433 -146 L1653 -146 L1653 1098 L433 1098 L433 -146 Z"/></clipPath><clipPath clipPathUnits="userSpaceOnUse" id="clipPath3"><path d="M-551.6926 -405.0223 L93.2232 -405.0223 L93.2232 219.7299 L-551.6926 219.7299 L-551.6926 -405.0223 Z"/></clipPath></defs>
<linearGradient gradientTransform="matrix(1 0 0 1 -370.2002 -614.5742)" x1="370.2002" x2="409.4502" gradientUnits="userSpaceOnUse" y1="655.0938" y2="655.0938" id="svg1.SVGID_1_">
	<stop offset="0" style="stop-color:#4D4D4D"/>
	<stop offset="0.0558" style="stop-color:#5F5F5F"/>
	<stop offset="0.2103" style="stop-color:#8D8D8D"/>
	<stop offset="0.3479" style="stop-color:#AEAEAE"/>
	<stop offset="0.4623" style="stop-color:#C2C2C2"/>
	<stop offset="0.5394" style="stop-color:#C9C9C9"/>
	<stop offset="0.6247" style="stop-color:#C5C5C5"/>
	<stop offset="0.7072" style="stop-color:#BABABA"/>
	<stop offset="0.7885" style="stop-color:#A6A6A6"/>
	<stop offset="0.869" style="stop-color:#8B8B8B"/>
	<stop offset="0.9484" style="stop-color:#686868"/>
	<stop offset="1" style="stop-color:#4D4D4D"/>
</linearGradient>
<path fill="url(#svg1.SVGID_1_)" d="M19.625,37.613C8.787,37.613,0,35.738,0,33.425v10c0,2.313,8.787,4.188,19.625,4.188  c10.839,0,19.625-1.875,19.625-4.188v-10C39.25,35.738,30.464,37.613,19.625,37.613z"/>
<linearGradient gradientTransform="matrix(1 0 0 1 -370.2002 -614.5742)" x1="370.2002" x2="409.4502" gradientUnits="userSpaceOnUse" y1="649.0938" y2="649.0938" id="svg1.SVGID_2_">
	<stop offset="0" style="stop-color:#B3B3B3"/>
	<stop offset="0.0171" style="stop-color:#B6B6B6"/>
	<stop offset="0.235" style="stop-color:#D7D7D7"/>
	<stop offset="0.4168" style="stop-color:#EBEBEB"/>
	<stop offset="0.5394" style="stop-color:#F2F2F2"/>
	<stop offset="0.6579" style="stop-color:#EEEEEE"/>
	<stop offset="0.7724" style="stop-color:#E3E3E3"/>
	<stop offset="0.8853" style="stop-color:#CFCFCF"/>
	<stop offset="0.9965" style="stop-color:#B4B4B4"/>
	<stop offset="1" style="stop-color:#B3B3B3"/>
</linearGradient>
<path fill="url(#svg1.SVGID_2_)" d="M19.625,37.613c10.839,0,19.625-1.875,19.625-4.188l-1.229-2c0,2.168-8.235,3.927-18.396,3.927  c-9.481,0-17.396-1.959-18.396-3.927l-1.229,2C0,35.738,8.787,37.613,19.625,37.613z"/>
<linearGradient gradientTransform="matrix(1 0 0 1 -370.2002 -614.5742)" x1="371.4297" x2="408.2217" gradientUnits="userSpaceOnUse" y1="646" y2="646" id="svg1.SVGID_3_">
	<stop offset="0" style="stop-color:#C9C9C9"/>
	<stop offset="1" style="stop-color:#808080"/>
</linearGradient>
<ellipse rx="18.396" fill="url(#svg1.SVGID_3_)" ry="3.926" cx="19.625" cy="31.425"/>
<linearGradient gradientTransform="matrix(1 0 0 1 -370.2002 -614.5742)" x1="370.2002" x2="409.4502" gradientUnits="userSpaceOnUse" y1="641.0938" y2="641.0938" id="svg1.SVGID_4_">
	<stop offset="0" style="stop-color:#4D4D4D"/>
	<stop offset="0.0558" style="stop-color:#5F5F5F"/>
	<stop offset="0.2103" style="stop-color:#8D8D8D"/>
	<stop offset="0.3479" style="stop-color:#AEAEAE"/>
	<stop offset="0.4623" style="stop-color:#C2C2C2"/>
	<stop offset="0.5394" style="stop-color:#C9C9C9"/>
	<stop offset="0.6247" style="stop-color:#C5C5C5"/>
	<stop offset="0.7072" style="stop-color:#BABABA"/>
	<stop offset="0.7885" style="stop-color:#A6A6A6"/>
	<stop offset="0.869" style="stop-color:#8B8B8B"/>
	<stop offset="0.9484" style="stop-color:#686868"/>
	<stop offset="1" style="stop-color:#4D4D4D"/>
</linearGradient>
<path fill="url(#svg1.SVGID_4_)" d="M19.625,23.613C8.787,23.613,0,21.738,0,19.425v10c0,2.313,8.787,4.188,19.625,4.188  c10.839,0,19.625-1.875,19.625-4.188v-10C39.25,21.738,30.464,23.613,19.625,23.613z"/>
<linearGradient gradientTransform="matrix(1 0 0 1 -370.2002 -614.5742)" x1="370.2002" x2="409.4502" gradientUnits="userSpaceOnUse" y1="635.0938" y2="635.0938" id="svg1.SVGID_5_">
	<stop offset="0" style="stop-color:#B3B3B3"/>
	<stop offset="0.0171" style="stop-color:#B6B6B6"/>
	<stop offset="0.235" style="stop-color:#D7D7D7"/>
	<stop offset="0.4168" style="stop-color:#EBEBEB"/>
	<stop offset="0.5394" style="stop-color:#F2F2F2"/>
	<stop offset="0.6579" style="stop-color:#EEEEEE"/>
	<stop offset="0.7724" style="stop-color:#E3E3E3"/>
	<stop offset="0.8853" style="stop-color:#CFCFCF"/>
	<stop offset="0.9965" style="stop-color:#B4B4B4"/>
	<stop offset="1" style="stop-color:#B3B3B3"/>
</linearGradient>
<path fill="url(#svg1.SVGID_5_)" d="M19.625,23.613c10.839,0,19.625-1.875,19.625-4.188l-1.229-2c0,2.168-8.235,3.926-18.396,3.926  c-9.481,0-17.396-1.959-18.396-3.926l-1.229,2C0,21.738,8.787,23.613,19.625,23.613z"/>
<linearGradient gradientTransform="matrix(1 0 0 1 -370.2002 -614.5742)" x1="371.4297" x2="408.2217" gradientUnits="userSpaceOnUse" y1="632" y2="632" id="svg1.SVGID_6_">
	<stop offset="0" style="stop-color:#C9C9C9"/>
	<stop offset="1" style="stop-color:#808080"/>
</linearGradient>
<ellipse rx="18.396" fill="url(#svg1.SVGID_6_)" ry="3.926" cx="19.625" cy="17.426"/>
<linearGradient gradientTransform="matrix(1 0 0 1 -370.2002 -614.5742)" x1="370.2002" x2="409.4502" gradientUnits="userSpaceOnUse" y1="627.5938" y2="627.5938" id="svg1.SVGID_7_">
	<stop offset="0" style="stop-color:#4D4D4D"/>
	<stop offset="0.0558" style="stop-color:#5F5F5F"/>
	<stop offset="0.2103" style="stop-color:#8D8D8D"/>
	<stop offset="0.3479" style="stop-color:#AEAEAE"/>
	<stop offset="0.4623" style="stop-color:#C2C2C2"/>
	<stop offset="0.5394" style="stop-color:#C9C9C9"/>
	<stop offset="0.6247" style="stop-color:#C5C5C5"/>
	<stop offset="0.7072" style="stop-color:#BABABA"/>
	<stop offset="0.7885" style="stop-color:#A6A6A6"/>
	<stop offset="0.869" style="stop-color:#8B8B8B"/>
	<stop offset="0.9484" style="stop-color:#686868"/>
	<stop offset="1" style="stop-color:#4D4D4D"/>
</linearGradient>
<path fill="url(#svg1.SVGID_7_)" d="M19.625,10.113C8.787,10.113,0,8.238,0,5.925v10c0,2.313,8.787,4.188,19.625,4.188  c10.839,0,19.625-1.875,19.625-4.188v-10C39.25,8.238,30.464,10.113,19.625,10.113z"/>
<linearGradient gradientTransform="matrix(1 0 0 1 -370.2002 -614.5742)" x1="370.2002" x2="409.4502" gradientUnits="userSpaceOnUse" y1="621.5938" y2="621.5938" id="svg1.SVGID_8_">
	<stop offset="0" style="stop-color:#B3B3B3"/>
	<stop offset="0.0171" style="stop-color:#B6B6B6"/>
	<stop offset="0.235" style="stop-color:#D7D7D7"/>
	<stop offset="0.4168" style="stop-color:#EBEBEB"/>
	<stop offset="0.5394" style="stop-color:#F2F2F2"/>
	<stop offset="0.6579" style="stop-color:#EEEEEE"/>
	<stop offset="0.7724" style="stop-color:#E3E3E3"/>
	<stop offset="0.8853" style="stop-color:#CFCFCF"/>
	<stop offset="0.9965" style="stop-color:#B4B4B4"/>
	<stop offset="1" style="stop-color:#B3B3B3"/>
</linearGradient>
<path fill="url(#svg1.SVGID_8_)" d="M19.625,10.113c10.839,0,19.625-1.875,19.625-4.188l-1.229-2c0,2.168-8.235,3.926-18.396,3.926  c-9.481,0-17.396-1.959-18.396-3.926L0,5.925C0,8.238,8.787,10.113,19.625,10.113z"/>
<linearGradient gradientTransform="matrix(1 0 0 1 -370.2002 -614.5742)" x1="371.4297" x2="408.2217" gradientUnits="userSpaceOnUse" y1="618.5" y2="618.5" id="svg1.SVGID_9_">
	<stop offset="0" style="stop-color:#C9C9C9"/>
	<stop offset="1" style="stop-color:#808080"/>
</linearGradient>
<ellipse rx="18.396" fill="url(#svg1.SVGID_9_)" ry="3.926" cx="19.625" cy="3.926"/>
<path fill="#FFFFFF" d="M31.291,46.792c0,0-4.313,0.578-7.249,0.694  C20.917,47.613,15,47.613,15,47.613l-2.443-10.279l-0.119-2.283l-1.231-1.842L9.789,23.024l-0.082-0.119L9.3,20.715l-1.45-1.44  L5.329,8.793c0,0,5.296,0.882,7.234,1.07s8.375,0.25,8.375,0.25l3,9.875l-0.25,1.313l1.063,2.168l2.312,9.644l-0.375,1.875  l1.627,2.193L31.291,46.792z" enable-background="new    " opacity="0.24"/>
</svg>
      </g>
    </g>
    <g fill="url(#linearGradient1)" text-rendering="geometricPrecision" shape-rendering="geometricPrecision" transform="matrix(1,0,0,1,-433,146)" stroke="url(#linearGradient1)">
      <path d="M643.5853 710.9861 C618.5228 681.9903 643.5853 656.1011 684.6879 674.7413 C684.6879 656.1011 752.8578 656.1011 752.8578 674.7413 C793.9603 656.1011 819.0228 681.9903 793.9603 704.7727 C819.0228 733.7685 793.9603 759.6577 762.8829 741.0175 C752.8578 759.6577 684.6879 759.6577 694.7128 741.0175 C643.5853 759.6577 618.5228 733.7685 643.5853 710.9861 Z" stroke="none" clip-path="url(#clipPath2)"/>
    </g>
    <g text-rendering="geometricPrecision" stroke-miterlimit="1.45" shape-rendering="geometricPrecision" transform="matrix(1,0,0,1,-433,146)" stroke-linecap="butt">
      <path fill="none" d="M643.5853 710.9861 C618.5228 681.9903 643.5853 656.1011 684.6879 674.7413 C684.6879 656.1011 752.8578 656.1011 752.8578 674.7413 C793.9603 656.1011 819.0228 681.9903 793.9603 704.7727 C819.0228 733.7685 793.9603 759.6577 762.8829 741.0175 C752.8578 759.6577 684.6879 759.6577 694.7128 741.0175 C643.5853 759.6577 618.5228 733.7685 643.5853 710.9861 Z" clip-path="url(#clipPath2)"/>
    </g>
    <g text-rendering="geometricPrecision" stroke-miterlimit="1.45" shape-rendering="geometricPrecision" transform="matrix(1,0,0,1,-433,146)" stroke-linecap="butt">
      <path fill="none" d="M983.7728 528.1279 L983.7728 558.6279 L1062.5228 579.6279 L1062.5228 628.8514" clip-path="url(#clipPath2)"/>
      <path d="M1062.5228 636.8514 L1067.5228 624.8514 L1062.5228 627.8514 L1057.5228 624.8514 Z" clip-path="url(#clipPath2)" stroke="none"/>
      <path fill="none" d="M1248.7728 528.1279 L1248.7728 558.6279 L1170.0228 579.6279 L1170.0228 628.8514" clip-path="url(#clipPath2)"/>
      <path d="M1170.0228 636.8514 L1175.0228 624.8514 L1170.0228 627.8514 L1165.0228 624.8514 Z" clip-path="url(#clipPath2)" stroke="none"/>
      <path fill="none" d="M1513.7728 528.1279 L1513.7728 652.4438" clip-path="url(#clipPath2)"/>
      <path d="M1513.7728 660.4438 L1518.7728 648.4438 L1513.7728 651.4438 L1508.7728 648.4438 Z" clip-path="url(#clipPath2)" stroke="none"/>
      <path fill="none" d="M718.7728 528.1279 L718.7728 652.7574" clip-path="url(#clipPath2)"/>
      <path d="M718.7728 660.7574 L723.7728 648.7574 L718.7728 651.7574 L713.7728 648.7574 Z" clip-path="url(#clipPath2)" stroke="none"/>
    </g>
    <g fill="rgb(153,204,255)" text-rendering="geometricPrecision" shape-rendering="geometricPrecision" transform="matrix(1,0,0,1,-433,146)" stroke="rgb(153,204,255)">
      <rect x="856.4944" y="872.6309" clip-path="url(#clipPath2)" width="512.4715" rx="4" ry="4" height="210.2046" stroke="none"/>
      <rect x="856.4944" y="872.6309" clip-path="url(#clipPath2)" fill="rgb(235,235,235)" width="512.4715" height="22.3765" stroke="none"/>
    </g>
    <g font-size="15px" stroke-linecap="butt" transform="matrix(1,0,0,1,-433,146)" text-rendering="geometricPrecision" font-family="sans-serif" shape-rendering="geometricPrecision" stroke-miterlimit="1.45">
      <text x="1302.7838" xml:space="preserve" y="889.7114" clip-path="url(#clipPath2)" stroke="none">Finalizers</text>
      <rect x="856.4944" y="872.6309" clip-path="url(#clipPath2)" fill="none" width="512.4715" stroke-dasharray="6,2" rx="4" ry="4" height="210.2046"/>
    </g>
    <g fill="silver" text-rendering="geometricPrecision" shape-rendering="geometricPrecision" transform="matrix(1,0,0,1,-433,146)" stroke="silver">
      <rect x="871.4944" y="925.8355" clip-path="url(#clipPath2)" width="215" rx="4" ry="4" height="142" stroke="none"/>
    </g>
    <g text-rendering="geometricPrecision" stroke-miterlimit="1.45" shape-rendering="geometricPrecision" transform="matrix(1,0,0,1,-433,146)" stroke-linecap="butt">
      <rect x="871.4944" y="925.8355" clip-path="url(#clipPath2)" fill="none" width="215" rx="4" ry="4" height="142"/>
      <text x="875.176" font-size="20px" y="1003.3248" clip-path="url(#clipPath2)" font-family="'Eras Demi ITC'" stroke="none" xml:space="preserve">RemoteCrawlFinalizer</text>
    </g>
    <g fill="silver" text-rendering="geometricPrecision" shape-rendering="geometricPrecision" transform="matrix(1,0,0,1,-433,146)" stroke="silver">
      <rect x="1138.9659" y="925.8355" clip-path="url(#clipPath2)" width="215" rx="4" ry="4" height="142" stroke="none"/>
    </g>
    <g text-rendering="geometricPrecision" stroke-miterlimit="1.45" shape-rendering="geometricPrecision" transform="matrix(1,0,0,1,-433,146)" stroke-linecap="butt">
      <rect x="1138.9659" y="925.8355" clip-path="url(#clipPath2)" fill="none" width="215" rx="4" ry="4" height="142"/>
      <text x="1163.087" font-size="20px" y="1003.3248" clip-path="url(#clipPath2)" font-family="'Eras Demi ITC'" stroke="none" xml:space="preserve">AnalyticsFinalizer</text>
    </g>
    <g fill="url(#linearGradient2)" text-rendering="geometricPrecision" shape-rendering="geometricPrecision" transform="matrix(1,0,0,1,-433,146)" stroke="url(#linearGradient2)">
      <path d="M728.5081 -130.375 L943.5081 -130.375 L943.5081 -6.125 Q889.7581 -41.625 836.0081 -6.125 Q782.2581 29.375 728.5081 -6.125 Z" stroke="none" clip-path="url(#clipPath2)"/>
    </g>
    <g text-rendering="geometricPrecision" stroke-miterlimit="1.45" shape-rendering="geometricPrecision" transform="matrix(1,0,0,1,-433,146)" stroke-linecap="butt">
      <path fill="none" d="M728.5081 -130.375 L943.5081 -130.375 L943.5081 -6.125 Q889.7581 -41.625 836.0081 -6.125 Q782.2581 29.375 728.5081 -6.125 Z" clip-path="url(#clipPath2)"/>
      <text x="754.3968" font-size="20px" y="-52.8857" clip-path="url(#clipPath2)" font-family="'Eras Demi ITC'" stroke="none" xml:space="preserve">specification.json</text>
    </g>
    <g fill="rgb(204,255,204)" text-rendering="geometricPrecision" shape-rendering="geometricPrecision" transform="matrix(1,0,0,1,-433,146)" stroke="rgb(204,255,204)">
      <rect x="1008.7729" y="-130.375" clip-path="url(#clipPath2)" width="215" rx="4" ry="4" height="142" stroke="none"/>
    </g>
    <g text-rendering="geometricPrecision" stroke-miterlimit="1.45" shape-rendering="geometricPrecision" transform="matrix(1,0,0,1,-433,146)" stroke-linecap="butt">
      <rect x="1008.7729" y="-130.375" clip-path="url(#clipPath2)" fill="none" width="215" rx="4" ry="4" height="142"/>
      <text x="1016.5219" font-size="20px" y="-52.8857" clip-path="url(#clipPath2)" font-family="'Eras Demi ITC'" stroke="none" xml:space="preserve">OWS-scrapy-wrapper</text>
    </g>
    <g fill="rgb(238,238,238)" text-rendering="geometricPrecision" shape-rendering="geometricPrecision" transform="matrix(1,0,0,1,-433,146)" stroke="rgb(238,238,238)">
      <rect x="448.2434" y="-130.375" clip-path="url(#clipPath2)" width="215" rx="4" ry="4" height="142" stroke="none"/>
    </g>
    <g text-rendering="geometricPrecision" stroke-miterlimit="1.45" stroke-dasharray="6,2" shape-rendering="geometricPrecision" transform="matrix(1,0,0,1,-433,146)" stroke-linecap="butt">
      <rect x="448.2434" y="-130.375" clip-path="url(#clipPath2)" fill="none" width="215" rx="4" ry="4" height="142"/>
      <path fill="none" stroke-dasharray="none" d="M910.1102 925.8032 L910.1102 853.1791 L718.7728 817.5934 L718.7728 762.9418" clip-path="url(#clipPath2)"/>
      <path stroke-dasharray="none" d="M718.7728 754.9418 L713.7728 766.9418 L718.7728 763.9418 L723.7728 766.9418 Z" clip-path="url(#clipPath2)" stroke="none"/>
      <path fill="none" stroke-dasharray="none" d="M987.005 925.8593 L987.005 853.8566 L1116.2728 836.6029 L1116.2728 786.8722" clip-path="url(#clipPath2)"/>
      <path stroke-dasharray="none" d="M1116.2728 778.8722 L1111.2728 790.8722 L1116.2728 787.8722 L1121.2728 790.8722 Z" clip-path="url(#clipPath2)" stroke="none"/>
      <path fill="none" stroke-dasharray="none" d="M943.5364 -59.375 L1000.7765 -59.375" clip-path="url(#clipPath2)"/>
      <path stroke-dasharray="none" d="M1008.7765 -59.375 L996.7765 -64.375 L999.7765 -59.375 L996.7765 -54.375 Z" clip-path="url(#clipPath2)" stroke="none"/>
      <path fill="none" stroke-dasharray="none" d="M1116.2728 11.5991 L1116.2728 75.0108" clip-path="url(#clipPath2)"/>
      <path stroke-dasharray="none" d="M1116.2728 83.0108 L1121.2728 71.0108 L1116.2728 74.0108 L1111.2728 71.0108 Z" clip-path="url(#clipPath2)" stroke="none"/>
      <path fill="none" stroke-dasharray="none" d="M663.2717 -59.375 L720.5118 -59.375" clip-path="url(#clipPath2)"/>
      <path stroke-dasharray="none" d="M728.5118 -59.375 L716.5118 -64.375 L719.5118 -59.375 L716.5118 -54.375 Z" clip-path="url(#clipPath2)" stroke="none"/>
    </g>
  </g>
</svg>
